<svg width="473" height="473" viewBox="0 0 473 473" fill="none" xmlns="http://www.w3.org/2000/svg">
<path d="M236.5 453.001C181 453.001 125.4 431.901 83.0996 389.601C42.0996 348.601 19.5996 294.201 19.5996 236.201C19.5996 178.301 42.1996 123.801 83.0996 82.8008C124.1 41.8008 178.5 19.3008 236.5 19.3008C294.4 19.3008 348.9 41.9008 389.9 82.8008C474.5 167.401 474.5 305.001 389.9 389.601C347.6 431.901 292 453.001 236.5 453.001ZM236.5 20.9008C179 20.9008 124.9 43.3008 84.2996 84.0008C43.5996 124.701 21.1996 178.701 21.1996 236.201C21.1996 293.701 43.5996 347.801 84.2996 388.401C168.2 472.401 304.8 472.301 388.8 388.401C472.7 304.401 472.7 167.901 388.8 83.9008C348.1 43.3008 294 20.9008 236.5 20.9008Z" fill="white"/>
<path d="M236.499 400.302C194.499 400.302 152.399 384.302 120.399 352.302C56.3994 288.302 56.3994 184.102 120.399 120.102C184.399 56.1016 288.599 56.1016 352.599 120.102C416.599 184.102 416.599 288.302 352.599 352.302C320.599 384.302 278.499 400.302 236.499 400.302ZM236.499 73.7016C194.899 73.7016 153.199 89.5016 121.499 121.202C58.0994 184.602 58.0994 287.702 121.499 351.102C184.899 414.502 287.999 414.502 351.399 351.102C414.799 287.702 414.799 184.602 351.399 121.202C319.799 89.5016 278.099 73.7016 236.499 73.7016Z" fill="white"/>
<path d="M292.399 445.602C292.099 445.602 291.799 445.402 291.699 445.102L236.499 322.002L181.299 445.102C181.099 445.502 180.699 445.602 180.399 445.502C179.999 445.402 179.799 445.002 179.799 444.602L193.599 310.402L84.2993 389.502C83.9993 389.702 83.4993 389.702 83.2993 389.402C82.9993 389.102 82.9993 388.702 83.1993 388.402L162.299 279.102L27.9993 292.902C27.5993 292.902 27.1993 292.702 27.0993 292.302C26.9993 291.902 27.1993 291.502 27.4993 291.402L150.599 236.202L27.5993 181.002C27.1993 180.802 27.0993 180.402 27.1993 180.102C27.2993 179.702 27.6993 179.502 28.0993 179.502L162.299 193.302L83.1993 84.0017C82.9993 83.7017 82.9993 83.2017 83.2993 83.0017C83.5993 82.7017 83.9993 82.7017 84.2993 82.9017L193.599 161.902L179.799 27.7017C179.799 27.3017 179.999 26.9017 180.399 26.8017C180.799 26.7017 181.199 26.9017 181.299 27.2017L236.499 150.302L291.699 27.2017C291.899 26.8017 292.299 26.7017 292.599 26.8017C292.999 26.9017 293.199 27.3017 293.199 27.7017L279.399 161.902L388.699 82.9017C388.999 82.7017 389.499 82.7017 389.699 83.0017C389.999 83.3017 389.999 83.7017 389.799 84.0017L310.699 193.302L444.899 179.502C445.299 179.502 445.699 179.702 445.799 180.102C445.899 180.502 445.699 180.902 445.399 181.002L322.299 236.202L445.399 291.402C445.799 291.602 445.899 292.002 445.799 292.302C445.699 292.702 445.299 292.902 444.899 292.902L310.699 279.102L389.799 388.402C389.999 388.702 389.999 389.202 389.699 389.402C389.399 389.702 388.999 389.702 388.699 389.502L279.399 310.402L293.199 444.602C293.199 445.002 292.999 445.402 292.599 445.502C292.499 445.602 292.499 445.602 292.399 445.602ZM194.599 308.002C194.699 308.002 194.899 308.002 194.999 308.102C195.299 308.302 195.399 308.602 195.399 308.902L181.899 439.902L235.799 319.702C236.099 319.102 236.999 319.102 237.299 319.702L291.099 439.902L277.599 308.902C277.599 308.602 277.699 308.302 277.999 308.102C278.299 307.902 278.599 308.002 278.899 308.102L385.699 385.302L308.499 278.502C308.299 278.202 308.299 277.902 308.499 277.602C308.699 277.302 308.999 277.202 309.299 277.202L440.399 290.702L319.999 236.902C319.699 236.802 319.499 236.502 319.499 236.202C319.499 235.902 319.699 235.602 319.999 235.502L440.199 181.602L309.099 195.102C308.799 195.102 308.499 195.002 308.299 194.702C308.099 194.402 308.199 194.102 308.299 193.802L385.499 87.0017L278.699 164.202C278.399 164.402 278.099 164.402 277.799 164.202C277.499 164.002 277.399 163.702 277.399 163.402L290.899 32.3017L236.999 152.502C236.699 153.102 235.799 153.102 235.499 152.502L181.899 32.5017L195.399 163.602C195.399 163.902 195.299 164.202 194.999 164.402C194.699 164.602 194.399 164.502 194.099 164.402L87.2993 87.2017L164.499 194.002C164.699 194.302 164.699 194.602 164.499 194.902C164.299 195.202 163.999 195.302 163.699 195.302L32.7993 181.602L152.999 235.502C153.299 235.602 153.499 235.902 153.499 236.202C153.499 236.502 153.299 236.802 152.999 236.902L32.7993 290.802L163.899 277.302C164.199 277.302 164.499 277.402 164.699 277.702C164.899 278.002 164.799 278.302 164.699 278.602L87.4993 385.402L194.299 308.202C194.299 308.002 194.399 308.002 194.599 308.002Z" fill="white"/>
<path d="M236.5 320.9C213.9 320.9 192.6 312.1 176.6 296.1C160.6 280.1 151.8 258.8 151.8 236.2C151.8 213.6 160.6 192.3 176.6 176.3C192.6 160.3 213.9 151.5 236.5 151.5C259.1 151.5 280.4 160.3 296.4 176.3C312.4 192.3 321.2 213.6 321.2 236.2C321.2 258.8 312.4 280.1 296.4 296.1C280.4 312.1 259.1 320.9 236.5 320.9ZM236.5 153.1C214.3 153.1 193.4 161.7 177.7 177.5C162 193.2 153.3 214.1 153.3 236.3C153.3 258.5 161.9 279.4 177.7 295.1C193.4 310.8 214.3 319.5 236.5 319.5C258.7 319.5 279.6 310.9 295.3 295.1C311 279.4 319.7 258.5 319.7 236.3C319.7 214.1 311.1 193.2 295.3 177.5C279.6 161.7 258.7 153.1 236.5 153.1Z" fill="white"/>
<path d="M236.7 152.6C230.2 158.6 227.5 168.1 234.2 174.7C241.7 182.5 243.6 195.8 238.5 205.6C234.4 211.7 225.3 206 229 199.6C230 198.4 230.8 196.6 231.4 195C233.4 189.4 232.6 183.6 229.3 178.2C226.5 173.8 225.1 167.9 226.9 162.9C227.7 160.4 229.1 158.3 230.7 156.4C231.4 155.6 237.8 149.7 236.7 152.6Z" fill="white"/>
<path d="M194.899 163.701C192.299 172.201 194.599 181.601 203.799 184.101C214.199 187.101 222.499 197.601 222.999 208.701C222.499 216.101 211.799 215.701 211.799 208.301C212.099 206.701 211.899 204.801 211.599 203.201C210.499 197.301 206.899 192.701 201.399 189.701C196.799 187.301 192.699 182.901 191.699 177.601C190.699 172.601 191.899 167.701 194.099 163.301C194.399 162.801 195.099 163.101 194.899 163.701Z" fill="white"/>
<path d="M164.3 194.102C166.3 202.802 173 209.802 182.2 207.302C192.7 204.702 205.2 209.702 211.1 219.002C214.4 225.602 204.8 230.602 201.2 224.202C200.6 222.702 199.5 221.102 198.4 219.902C194.5 215.402 189.1 213.202 182.8 213.302C177.6 213.602 171.8 211.802 168.4 207.702C166.7 205.802 165.5 203.502 164.7 201.202C163.9 198.902 163.4 196.502 163.3 194.102C163.3 193.802 163.5 193.602 163.7 193.602C164 193.702 164.2 193.902 164.3 194.102Z" fill="white"/>
<path d="M152.899 235.801C158.899 242.301 168.399 245.001 174.999 238.301C182.799 230.801 196.099 228.901 205.899 234.001C211.999 238.101 206.299 247.201 199.899 243.501C198.699 242.501 196.899 241.701 195.299 241.101C189.599 239.101 183.899 239.901 178.499 243.201C174.099 246.001 168.199 247.401 163.199 245.601C160.699 244.801 158.599 243.401 156.699 241.801C155.899 241.101 149.999 234.801 152.899 235.801Z" fill="white"/>
<path d="M163.9 277.6C172.4 280.2 181.8 277.9 184.3 268.7C187.3 258.3 197.8 250 208.9 249.5C216.3 250 215.9 260.7 208.5 260.7C206.9 260.4 205 260.6 203.4 260.9C197.5 262 192.9 265.6 189.9 271.1C187.5 275.7 183.1 279.8 177.8 280.8C172.8 281.8 167.9 280.6 163.5 278.4C163.1 278.2 163.4 277.4 163.9 277.6Z" fill="white"/>
<path d="M194.399 308.3C203.099 306.3 210.099 299.6 207.599 290.4C204.999 279.9 209.999 267.4 219.299 261.5C225.899 258.2 230.899 267.8 224.499 271.4C222.999 272 221.399 273.1 220.199 274.2C215.699 278.1 213.499 283.5 213.599 289.8C213.899 295 212.099 300.8 207.999 304.2C206.099 305.9 203.799 307.1 201.499 307.9C199.199 308.7 196.799 309.2 194.399 309.3C194.099 309.3 193.899 309.1 193.899 308.9C193.999 308.5 194.199 308.3 194.399 308.3Z" fill="white"/>
<path d="M236.1 319.6C242.6 313.6 245.3 304.1 238.6 297.5C231.1 289.7 229.2 276.4 234.3 266.6C238.4 260.5 247.5 266.2 243.8 272.6C242.8 273.8 242 275.6 241.4 277.2C239.4 282.8 240.2 288.6 243.5 294C246.3 298.4 247.7 304.3 245.9 309.3C245.1 311.8 243.7 313.9 242.1 315.8C241.4 316.7 235.1 322.5 236.1 319.6Z" fill="white"/>
<path d="M277.9 308.6C280.5 300.1 278.2 290.7 269 288.2C258.6 285.2 250.3 274.7 249.8 263.6C250.3 256.2 261 256.6 261 264C260.7 265.6 260.9 267.5 261.2 269.1C262.3 275 265.9 279.6 271.4 282.6C276 285 280.1 289.4 281.1 294.7C282.1 299.7 280.9 304.6 278.7 309C278.5 309.5 277.7 309.1 277.9 308.6Z" fill="white"/>
<path d="M308.6 278.101C306.6 269.401 299.9 262.401 290.7 264.901C280.2 267.501 267.7 262.501 261.8 253.201C258.5 246.601 268.1 241.601 271.7 248.001C272.3 249.501 273.4 251.101 274.5 252.301C278.4 256.801 283.8 259.001 290.1 258.901C295.3 258.601 301.1 260.401 304.5 264.501C306.2 266.401 307.4 268.701 308.2 271.001C309 273.301 309.5 275.701 309.6 278.101C309.6 278.401 309.4 278.601 309.2 278.601C308.8 278.501 308.6 278.401 308.6 278.101Z" fill="white"/>
<path d="M319.9 236.4C313.9 229.9 304.4 227.2 297.8 233.9C290 241.4 276.7 243.3 266.9 238.2C260.8 234.1 266.5 225 272.9 228.7C274.1 229.7 275.9 230.5 277.5 231.1C283.2 233.1 288.9 232.3 294.3 229C298.7 226.2 304.6 224.8 309.6 226.6C312.1 227.4 314.2 228.8 316.1 230.4C317 231.2 322.8 237.5 319.9 236.4Z" fill="white"/>
<path d="M308.9 194.601C300.4 192.001 291 194.301 288.5 203.501C285.5 213.901 275 222.201 263.9 222.701C256.5 222.201 256.9 211.501 264.3 211.501C265.9 211.801 267.8 211.601 269.4 211.301C275.3 210.201 279.9 206.601 282.9 201.101C285.3 196.501 289.7 192.401 295 191.401C300 190.401 304.9 191.601 309.3 193.801C309.7 194.101 309.4 194.901 308.9 194.601Z" fill="white"/>
<path d="M278.4 164C269.7 166 262.7 172.7 265.2 181.9C267.8 192.4 262.8 204.9 253.5 210.8C246.9 214.1 241.9 204.5 248.3 200.9C249.8 200.3 251.4 199.2 252.6 198.1C257.1 194.2 259.3 188.8 259.2 182.5C258.9 177.3 260.7 171.5 264.8 168.1C266.7 166.4 269 165.2 271.3 164.4C273.6 163.6 276 163.1 278.4 163C278.7 163 278.9 163.2 278.9 163.4C278.8 163.7 278.7 163.9 278.4 164Z" fill="white"/>
<path d="M236.499 274.001C226.799 274.001 217.199 270.301 209.799 263.001C195.099 248.301 195.099 224.301 209.799 209.601C224.499 194.901 248.499 194.901 263.199 209.601C277.899 224.301 277.899 248.301 263.199 263.001C255.799 270.301 246.199 274.001 236.499 274.001ZM236.499 209.601C229.699 209.601 222.899 212.201 217.699 217.401C207.299 227.801 207.299 244.601 217.699 255.001C228.099 265.401 244.899 265.401 255.299 255.001C265.699 244.601 265.699 227.801 255.299 217.401C250.099 212.201 243.299 209.601 236.499 209.601Z" fill="white"/>
<path d="M155.299 215.2C155.199 215.2 155.199 215.2 155.099 215.2L27.6995 181.1C27.2995 181 26.9995 180.5 27.0995 180.1C27.1995 179.7 27.6995 179.4 28.0995 179.5L155.499 213.6C155.899 213.7 156.199 214.2 156.099 214.6C155.999 214.9 155.699 215.2 155.299 215.2Z" fill="white"/>
<path d="M27.8992 292.7C27.4992 292.7 27.1992 292.5 27.0992 292.1C26.9992 291.7 27.1992 291.2 27.6992 291.1L154.999 256.9C155.399 256.8 155.899 257 155.999 257.5C156.099 257.9 155.899 258.4 155.399 258.5L28.0992 292.6C27.9992 292.6 27.9992 292.7 27.8992 292.7Z" fill="white"/>
<path d="M83.5994 389.302C83.3994 389.302 83.1994 389.202 82.9994 389.102C82.6994 388.802 82.6994 388.302 82.9994 388.002L176.199 294.702C176.499 294.402 176.999 294.402 177.299 294.702C177.599 295.002 177.599 295.502 177.299 295.802L84.0994 389.102C84.0994 389.202 83.7994 389.302 83.5994 389.302Z" fill="white"/>
<path d="M180.199 445.101C180.099 445.101 180.099 445.101 179.999 445.101C179.599 445.001 179.299 444.501 179.399 444.101L213.499 316.701C213.599 316.301 214.099 316.001 214.499 316.101C214.899 316.201 215.199 316.701 215.099 317.101L180.999 444.501C180.899 444.801 180.599 445.101 180.199 445.101Z" fill="white"/>
<path d="M291.799 445.101C291.399 445.101 291.099 444.901 290.999 444.501L256.799 317.101C256.699 316.701 256.899 316.201 257.399 316.101C257.799 316.001 258.299 316.201 258.399 316.701L292.599 444.101C292.699 444.501 292.499 445.001 291.999 445.101C291.899 445.101 291.899 445.101 291.799 445.101Z" fill="white"/>
<path d="M388.399 389.301C388.199 389.301 387.999 389.201 387.799 389.101L294.499 295.901C294.199 295.601 294.199 295.101 294.499 294.801C294.799 294.501 295.299 294.501 295.599 294.801L388.899 388.001C389.199 388.301 389.199 388.801 388.899 389.101C388.799 389.201 388.599 389.301 388.399 389.301Z" fill="white"/>
<path d="M444.2 292.7C444.1 292.7 444.1 292.7 444 292.7L316.6 258.6C316.2 258.5 315.9 258 316 257.6C316.1 257.2 316.5 256.9 317 257L444.4 291.1C444.8 291.2 445.1 291.7 445 292.1C444.9 292.5 444.5 292.7 444.2 292.7Z" fill="white"/>
<path d="M316.8 215.401C316.4 215.401 316.1 215.201 316 214.801C315.9 214.401 316.1 213.901 316.6 213.801L444 179.601C444.4 179.501 444.9 179.701 445 180.201C445.1 180.601 444.9 181.101 444.4 181.201L317 215.401C317 215.401 316.9 215.401 316.8 215.401Z" fill="white"/>
<path d="M295.2 177.901C295 177.901 294.8 177.801 294.6 177.701C294.3 177.401 294.3 176.901 294.6 176.601L387.8 83.3012C388.1 83.0012 388.6 83.0012 388.9 83.3012C389.2 83.6012 389.2 84.1012 388.9 84.4012L295.7 177.701C295.7 177.801 295.5 177.901 295.2 177.901Z" fill="white"/>
<path d="M257.8 156.201C257.7 156.201 257.7 156.201 257.6 156.201C257.2 156.101 256.9 155.601 257 155.201L291.1 27.801C291.2 27.401 291.6 27.101 292.1 27.201C292.5 27.301 292.8 27.801 292.7 28.201L258.6 155.601C258.5 156.001 258.1 156.201 257.8 156.201Z" fill="white"/>
<path d="M214.5 156.101C214.1 156.101 213.8 155.901 213.7 155.501L179.5 28.2008C179.4 27.8008 179.6 27.3008 180.1 27.2008C180.5 27.1008 181 27.3008 181.1 27.8008L215.3 155.101C215.4 155.501 215.2 156.001 214.7 156.101C214.7 156.101 214.6 156.101 214.5 156.101Z" fill="white"/>
<path d="M177 177.702C176.8 177.702 176.6 177.602 176.4 177.502L83.1 84.3016C82.8 84.0016 82.8 83.5016 83.1 83.2016C83.4 82.9016 83.9 82.9016 84.2 83.2016L177.5 176.402C177.8 176.702 177.8 177.202 177.5 177.502C177.4 177.602 177.2 177.702 177 177.702Z" fill="white"/>
<path d="M242 35.2012C240.4 35.2012 238.9 35.9012 237.9 37.0012C236.9 35.9012 235.4 35.2012 233.8 35.2012C230.7 35.2012 228.1 37.8012 228.1 40.9012C228.1 42.4012 228.7 43.9012 229.8 44.9012L232.2 42.5012C231.8 42.1012 231.5 41.5012 231.5 40.9012C231.5 39.6012 232.5 38.6012 233.8 38.6012C235.1 38.6012 236.1 39.6012 236.1 40.9012V57.9012H236.4H239.5H239.8V40.9012C239.8 39.6012 240.8 38.6012 242.1 38.6012C243.4 38.6012 244.4 39.6012 244.4 40.9012C244.4 41.5012 244.2 42.1012 243.7 42.5012L246.1 44.9012C247.2 43.8012 247.8 42.4012 247.8 40.9012C247.7 37.8012 245.2 35.2012 242 35.2012Z" fill="white"/>
<path d="M339.3 62.1016H335.9C335.9 64.8016 333.7 67.1016 330.9 67.1016C328.2 67.1016 325.9 64.9016 325.9 62.1016H322.5C322.5 64.8016 323.8 67.2016 325.8 68.8016C323.8 70.3016 322.5 72.7016 322.5 75.5016C322.5 80.1016 326.3 83.9016 330.9 83.9016C335.5 83.9016 339.3 80.1016 339.3 75.5016C339.3 72.8016 338 70.4016 336 68.8016C338 67.3016 339.3 64.9016 339.3 62.1016ZM335.9 75.5016C335.9 78.2016 333.7 80.5016 330.9 80.5016C328.2 80.5016 325.9 78.3016 325.9 75.5016C325.9 72.8016 328.1 70.5016 330.9 70.5016C333.7 70.5016 335.9 72.7016 335.9 75.5016Z" fill="white"/>
<path d="M416.6 138.102L415 135.102C415 135.102 410.6 137.402 405.3 137.402C400 137.402 395.6 135.102 395.6 135.102L394 138.102C394.1 138.202 395.9 139.102 398.6 139.902V153.702C395.9 154.502 394.1 155.402 394 155.502L395.6 158.502C395.6 158.502 400 156.202 405.3 156.202C410.6 156.202 415 158.502 415 158.502L415.8 157.002L416.6 155.502C416.5 155.402 414.7 154.502 412 153.702V139.902C414.7 139.202 416.4 138.202 416.6 138.102ZM408.6 153.002C407.5 152.802 406.4 152.802 405.3 152.802C404.1 152.802 403 152.902 402 153.002V140.702C403.1 140.902 404.2 140.902 405.3 140.902C406.5 140.902 407.6 140.802 408.6 140.702V153.002Z" fill="white"/>
<path d="M427.1 248.601C424.2 248.601 421.6 247.101 420.1 244.901C422.6 244.801 424.5 242.801 424.5 240.301C424.5 237.801 422.4 235.701 419.9 235.701C417.4 235.701 415.3 237.801 415.3 240.301C415.3 246.801 420.6 252.001 427 252.001C430.4 252.001 433.7 250.501 435.9 247.901L433.3 245.701C431.8 247.501 429.5 248.601 427.1 248.601ZM420 239.001C420.7 239.001 421.2 239.501 421.2 240.201C421.2 240.901 420.7 241.401 420 241.401C419.3 241.401 418.8 240.901 418.8 240.201C418.8 239.601 419.3 239.001 420 239.001Z" fill="white"/>
<path d="M427.1 228.502C423.9 228.502 421 229.702 418.8 232.002L421.2 234.402C422.8 232.802 424.9 231.902 427.1 231.902C430 231.902 432.6 233.402 434.1 235.602C431.6 235.702 429.7 237.702 429.7 240.202C429.7 242.702 431.8 244.802 434.3 244.802C436.8 244.802 438.9 242.702 438.9 240.202C438.8 233.802 433.6 228.502 427.1 228.502ZM434.2 241.502C433.5 241.502 433 241.002 433 240.302C433 239.602 433.5 239.102 434.2 239.102C434.9 239.102 435.4 239.602 435.4 240.302C435.4 240.902 434.9 241.502 434.2 241.502Z" fill="white"/>
<path d="M400.9 318.102C399 318.102 397.2 318.902 395.9 320.402C394.7 321.802 394.1 323.702 394.4 325.602L394.7 327.602C394.5 327.602 394.3 327.602 394.1 327.602C391.4 327.602 389.3 329.802 389.3 332.402C389.3 335.002 391.5 337.202 394.1 337.202C396.5 337.202 398.4 335.502 398.9 333.302H399V333.102C399 332.902 399.1 332.702 399.1 332.402C399.1 331.702 398.9 331.002 398.7 330.402L398 325.102C397.9 324.202 398.1 323.302 398.7 322.602C399.3 321.902 400.2 321.502 401.1 321.502C402.1 321.502 403 322.002 403.7 322.802C404.3 323.602 404.5 324.602 404.2 325.602L399.9 339.602C399.6 340.702 399.7 341.902 400.4 342.802C401.1 343.702 402.1 344.302 403.2 344.302C403.3 344.302 403.3 344.302 403.4 344.302C405.4 344.302 407.1 342.602 407.1 340.602H403.7C403.7 340.802 403.6 340.902 403.4 340.902C403.4 340.902 403.3 340.902 403.2 340.802C403.2 340.802 403.1 340.702 403.2 340.502L407.5 326.502C408.1 324.502 407.8 322.402 406.5 320.702C404.9 319.102 403 318.102 400.9 318.102ZM394.1 333.902C393.3 333.902 392.6 333.202 392.6 332.402C392.6 331.602 393.3 330.902 394.1 330.902C394.6 330.902 395 331.102 395.3 331.502L395.5 332.902C395.2 333.502 394.7 333.902 394.1 333.902Z" fill="white"/>
<path d="M344.2 393.102C342.3 391.702 339.7 391.702 337.4 392.702C336.6 390.502 334.5 389.002 332 389.002C330.4 389.002 329 389.602 327.9 390.702C326.9 389.702 325.4 389.002 323.8 389.002C322.1 389.002 320.6 389.702 319.5 390.902C318.3 389.702 316.7 389.002 314.8 389.002C311.2 389.002 308.2 392.002 308.2 395.602C308.2 397.402 308.9 399.002 310.1 400.302L312.5 397.902C311.9 397.302 311.6 396.502 311.6 395.602C311.6 393.802 313 392.402 314.8 392.402C316.6 392.402 318 393.802 318 395.602V407.702V410.202H321.4V407.702V395.602V394.802C321.4 393.502 322.5 392.402 323.8 392.402C325.1 392.402 326.2 393.502 326.2 394.802V410.302H329.6V394.802C329.6 393.502 330.7 392.402 332 392.402C333.3 392.402 334.4 393.502 334.4 394.802V408.102C333.2 408.402 332.3 408.302 332.2 408.302L331.8 411.702C331.9 411.702 332.1 411.702 332.6 411.702C333.1 411.702 333.7 411.702 334.5 411.502C335.1 414.502 337.7 416.802 340.8 416.802V413.402C339.2 413.402 337.9 412.202 337.8 410.502C340.2 409.402 342.8 407.402 344.9 403.602C348.5 396.902 345.3 393.902 344.2 393.102ZM341.9 402.002C340.7 404.302 339.2 405.702 337.8 406.602V396.402C339.3 395.202 341.2 395.102 342.2 395.902C343.6 396.802 343.5 399.102 341.9 402.002Z" fill="white"/>
<path d="M232.6 425.901C232.6 422.401 235.4 419.601 238.9 419.601C242.4 419.601 245.2 422.401 245.2 425.901V427.601H255.8V424.201H248.5C247.7 419.601 243.7 416.201 238.9 416.201C234.1 416.201 230.1 419.701 229.3 424.201H222V427.601H232.6V425.901Z" fill="white"/>
<path d="M255.9 433.701H222.1V437.101H255.9V433.701Z" fill="white"/>
<path d="M154 412.001H157.4V409.201C157.8 409.701 158 410.401 158 411.001V411.101C158 412.801 156.6 414.201 154.9 414.201H154.8C153.1 414.201 151.7 412.901 151.7 411.101V395.601C151.7 392.401 149.1 389.801 145.9 389.801C144.3 389.801 142.9 390.401 141.8 391.501C140.8 390.501 139.3 389.801 137.7 389.801C136 389.801 134.5 390.501 133.4 391.701C132.2 390.501 130.6 389.801 128.7 389.801C125.1 389.801 122.1 392.801 122.1 396.401C122.1 398.201 122.8 399.801 124 401.101L126.4 398.701C125.8 398.101 125.5 397.301 125.5 396.401C125.5 394.601 126.9 393.201 128.7 393.201C130.5 393.201 131.9 394.601 131.9 396.401V408.501V411.001H135.3V408.501V396.401V395.601C135.3 394.301 136.4 393.201 137.7 393.201C139 393.201 140.1 394.301 140.1 395.601V411.101H143.5V395.601C143.5 394.301 144.6 393.201 145.9 393.201C147.2 393.201 148.3 394.301 148.3 395.601V411.101C148.3 414.701 151.4 417.601 154.9 417.601C158.4 417.601 161.3 414.701 161.3 411.201C161.3 409.701 160.7 408.201 159.8 407.101H162.2V403.701H153.9V412.001H154Z" fill="white"/>
<path d="M77.2998 324.601H80.2998L72.9998 332.001L67.4998 326.501L65.0998 328.901L70.5998 334.401L60.7998 344.101L63.1998 346.501L72.9998 336.801L78.5998 342.401L80.9998 340.001L75.3998 334.401L82.4998 327.301V329.901H85.8998V321.201H77.2998V324.601Z" fill="white"/>
<path d="M54.6998 234.702C56.9998 234.102 58.6998 232.102 58.6998 229.702C58.6998 226.802 56.3998 224.502 53.4998 224.502H53.2998C51.3998 224.502 49.5998 225.602 48.6998 227.302C47.9998 228.602 47.8998 230.202 48.3998 231.502H45.7998L41.4998 242.602L37.4998 231.502H31.7998V234.902H35.1998L41.4998 252.202L48.1998 234.902H50.5998L59.2998 247.202C59.6998 247.802 59.4998 248.302 59.3998 248.502C59.2998 248.702 58.9998 249.202 58.2998 249.202C57.5998 249.202 57.0998 248.602 57.0998 248.002H53.6998C53.6998 250.502 55.7998 252.602 58.2998 252.602C59.9998 252.602 61.5998 251.602 62.3998 250.102C63.1998 248.602 63.0998 246.702 62.0998 245.302L54.6998 234.702ZM52.3998 231.502L51.8998 230.702C51.4998 230.102 51.4998 229.402 51.7998 228.802C52.0998 228.202 52.6998 227.802 53.3998 227.802H53.4998C54.4998 227.802 55.2998 228.602 55.2998 229.602C55.2998 230.602 54.4998 231.402 53.4998 231.402H52.3998V231.502Z" fill="white"/>
<path d="M82.5996 139.702C81.2996 139.702 80.7996 139.302 79.8996 138.702C78.8996 138.002 77.5996 137.102 75.2996 137.102C72.8996 137.102 71.6996 138.002 70.6996 138.702C69.8996 139.302 69.2996 139.702 67.9996 139.702C66.6996 139.702 66.0996 139.302 65.2996 138.702C64.2996 138.002 62.9996 137.102 60.6996 137.102C58.3996 137.102 57.0996 138.002 56.0996 138.702C55.8996 138.802 55.7996 138.902 55.5996 139.002L57.2996 141.902C57.4996 141.802 57.6996 141.602 57.8996 141.502C58.6996 140.902 59.2996 140.502 60.5996 140.502C61.8996 140.502 62.4996 140.902 63.2996 141.502C64.2996 142.202 65.5996 143.102 67.8996 143.102C70.2996 143.102 71.4996 142.202 72.4996 141.502C73.2996 140.902 73.8996 140.502 75.1996 140.502C76.4996 140.502 77.0996 140.902 77.8996 141.502C78.8996 142.202 80.1996 143.102 82.4996 143.102C84.7996 143.102 86.0996 142.202 87.0996 141.502L85.1996 138.702C84.3996 139.302 83.8996 139.702 82.5996 139.702Z" fill="white"/>
<path d="M82.5996 150.202C81.2996 150.202 80.7996 149.802 79.8996 149.202C78.8996 148.502 77.5996 147.602 75.2996 147.602C72.8996 147.602 71.6996 148.502 70.6996 149.202C69.8996 149.802 69.2996 150.202 67.9996 150.202C66.6996 150.202 66.0996 149.802 65.2996 149.202C64.2996 148.502 62.9996 147.602 60.6996 147.602C58.3996 147.602 57.0996 148.502 56.0996 149.202C55.8996 149.302 55.7996 149.402 55.5996 149.502L57.4996 152.302C57.6996 152.202 57.8996 152.002 58.0996 151.902C58.8996 151.302 59.4996 150.902 60.7996 150.902C62.0996 150.902 62.6996 151.302 63.4996 151.902C64.4996 152.602 65.7996 153.502 68.0996 153.502C70.4996 153.502 71.6996 152.602 72.6996 151.902C73.4996 151.302 74.0996 150.902 75.3996 150.902C76.6996 150.902 77.2996 151.302 78.0996 151.902C79.0996 152.602 80.3996 153.502 82.6996 153.502C84.9996 153.502 86.2996 152.602 87.2996 151.902L85.3996 149.102C84.3996 149.802 83.8996 150.202 82.5996 150.202Z" fill="white"/>
<path d="M151.6 71.702H144.7C145.5 66.002 150.2 61.402 150.3 61.402L149.1 60.202L147.9 59.002C147.6 59.202 142.1 64.602 141.2 71.802H138.8C138 64.702 132.4 59.302 132.1 59.002L129.8 61.502C129.9 61.502 134.5 66.102 135.4 71.802H128.5V75.202H135.4C134.6 80.902 129.9 85.502 129.8 85.502L131 86.702L132.2 87.902C132.5 87.702 138 82.302 138.9 75.102H141.3C142.1 82.202 147.7 87.602 148 87.902L150.3 85.402C150.2 85.402 145.6 80.802 144.7 75.102H151.6V71.702Z" fill="white"/>
<path d="M230.3 111.301L237.9 94.2012L245.5 111.301H230.3Z" fill="white"/>
<path d="M245.5 366.9L237.9 384.1L230.3 366.9H245.5Z" fill="white"/>
<path d="M167.399 132.202L165.399 113.602L180.499 124.602L167.399 132.202Z" fill="white"/>
<path d="M308.399 346.002L310.399 364.602L295.199 353.602L308.399 346.002Z" fill="white"/>
<path d="M123.399 181.801L112.399 166.701L130.999 168.601L123.399 181.801Z" fill="white"/>
<path d="M352.4 296.502L363.4 311.602L344.8 309.602L352.4 296.502Z" fill="white"/>
<path d="M110.1 246.702L93 239.102L110.1 231.502V246.702Z" fill="white"/>
<path d="M365.7 231.502L382.8 239.102L365.7 246.702V231.502Z" fill="white"/>
<path d="M130.999 309.602L112.399 311.602L123.399 296.502L130.999 309.602Z" fill="white"/>
<path d="M344.8 168.601L363.4 166.701L352.4 181.801L344.8 168.601Z" fill="white"/>
<path d="M180.499 353.602L165.399 364.602L167.399 346.002L180.499 353.602Z" fill="white"/>
<path d="M295.199 124.602L310.399 113.602L308.399 132.202L295.199 124.602Z" fill="white"/>
<path d="M471.9 236.5C471.9 366.5 366.5 471.9 236.5 471.9M471.9 236.5C471.9 106.4 366.6 1 236.5 1M471.9 236.5H465.3M236.5 471.9C106.5 471.9 1 366.5 1 236.5M236.5 471.9V465.3M1 236.5C1 106.5 106.4 1 236.5 1M1 236.5H7.6M236.5 1V7.6M236.5 7.6C110.1 7.6 7.6 110.1 7.6 236.5M236.5 7.6C362.9 7.6 465.3 110.1 465.3 236.5M7.6 236.5C7.6 362.9 110.1 465.4 236.5 465.4C362.9 465.4 465.3 362.9 465.3 236.5M215.9 1.9L216.5 8.4M196.7 11.1L195.6 4.6M175.5 9.1L177.2 15.4M155.9 15.2L158.1 21.4M137 23.1L139.8 29M118.7 32.6L122 38.3M101.4 43.6L105.2 49M85.1 56.1L89.3 61.1M70 70L74.6 74.6M61.1 89.3L56.1 85.1M49 105.2L43.6 101.4M32.6 118.8L38.3 122.1M23.1 137L29 139.8M21.4 158.2L15.2 156M9 175.5L15.3 177.2M4.6 195.6L11.1 196.7M1.9 216L8.4 216.6M8.4 256.4L1.9 257M4.6 277.4L11.1 276.3M9 297.4L15.3 295.7M15.2 317L21.4 314.8M23.1 336L29 333.2M32.6 354.2L38.3 350.9M43.6 371.5L49 367.7M56.1 387.8L61.1 383.6M70 403L74.6 398.4M85.1 416.8L89.3 411.8M101.4 429.3L105.2 423.9M122 434.7L118.7 440.4M139.7 443.9L136.9 449.8M155.9 457.7L158.1 451.5M175.5 463.9L177.2 457.6M195.6 468.3L196.7 461.8M216.5 464.5L215.9 471M257 471L256.4 464.5M277.3 468.3L276.2 461.8M297.4 463.9L295.7 457.6M317 457.7L314.8 451.5M336 449.9L333.2 444M354.2 440.4L350.9 434.7M371.5 429.3L367.7 423.9M387.8 416.8L383.6 411.8M402.9 403L398.3 398.4M416.8 387.8L411.8 383.6M429.3 371.5L423.9 367.7M434.7 350.9L440.4 354.2M449.8 336L443.9 333.2M457.7 317L451.5 314.8M463.9 297.4L457.6 295.7M468.3 277.4L461.8 276.3M464.5 256.4L471 257M471 216L464.5 216.6M461.9 196.7L468.4 195.6M463.9 175.5L457.6 177.2M457.7 155.9L451.5 158.1M449.8 137L443.9 139.8M440.4 118.8L434.7 122.1M429.3 101.4L423.9 105.2M416.8 85.1L411.8 89.3M402.9 70L398.3 74.6M387.8 56.1L383.6 61.1M371.5 43.6L367.7 49M354.2 32.6L350.9 38.3M336 23.1L333.2 29M317 15.2L314.8 21.4M297.4 9.1L295.7 15.4M276.2 11.1L277.3 4.6M257 1.9L256.4 8.4M226.2 1.3L226.5 7.9M205.7 3L206.6 9.5M185.5 6.6L186.9 13M167.6 18.2L165.6 11.9M148.9 25L146.4 18.9M130.8 33.5L127.8 27.7M110 37.9L113.5 43.4M93.1 49.7L97.1 54.9M81.8 67.7L77.4 62.9M62.9 77.4L67.7 81.8M49.7 93.1L54.9 97.1M37.9 110L43.4 113.5M27.6 127.8L33.4 130.8M25 148.9L18.9 146.4M11.9 165.7L18.2 167.7M6.6 185.5L13 186.9M3 205.7L9.5 206.6M1.2 226.2L7.8 226.5M7.8 246.5L1.2 246.8M9.5 266.3L3 267.2M6.6 287.4L13 286M11.9 307.3L18.2 305.3M18.9 326.6L25 324.1M27.6 345.2L33.4 342.2M37.9 363L43.4 359.5M49.7 379.8L54.9 375.8M62.9 395.5L67.7 391.1M77.4 410.1L81.8 405.3M93.1 423.3L97.1 418.1M110 435L113.5 429.5M127.7 445.3L130.7 439.5M146.4 454L148.9 447.9M167.6 454.8L165.6 461.1M185.5 466.3L186.9 459.9M205.7 469.9L206.6 463.4M226.2 471.7L226.5 465.1M246.7 471.7L246.4 465.1M267.2 469.9L266.3 463.4M286 459.9L287.4 466.3M307.3 461L305.3 454.7M324 447.9L326.5 454M342.1 439.5L345.1 445.3M363 435L359.5 429.5M379.8 423.3L375.8 418.1M395.5 410.1L391.1 405.3M410 395.5L405.2 391.1M423.2 379.8L418 375.8M435 363L429.5 359.5M439.5 342.2L445.3 345.2M454 326.6L447.9 324.1M461 307.3L454.7 305.3M466.3 287.4L459.9 286M469.9 267.2L463.4 266.3M471.7 246.7L465.1 246.4M465.1 226.5L471.7 226.2M469.9 205.7L463.4 206.6M466.3 185.5L459.9 186.9M454.7 167.6L461 165.6M454 146.4L447.9 148.9M445.3 127.8L439.5 130.8M429.5 113.5L435 110M423.2 93.1L418 97.1M410 77.4L405.2 81.8M395.5 62.9L391.1 67.7M379.8 49.7L375.8 54.9M363 37.9L359.5 43.4M345.2 27.6L342.2 33.4M326.6 19L324.1 25.1M307.3 11.9L305.3 18.2M286 13L287.4 6.6M267.2 3L266.3 9.5M246.7 1.3L246.4 7.9" stroke="white" stroke-miterlimit="10" stroke-linecap="round" stroke-linejoin="round"/>
</svg>
